/vscmnt/brussel_pixiu_data/_data_brussel/112/vsc11236/PredSimResults/SUBJ07opt3D/trackIG/worker_03.mot
version=1
nRows=11
nColumns=50
inDegrees=yes
endheader
                time	         pelvis_tilt	         pelvis_list	     pelvis_rotation	           pelvis_tx	           pelvis_ty	           pelvis_tz	       hip_flexion_r	     hip_adduction_r	      hip_rotation_r	        knee_angle_r	       ankle_angle_r	         mtp_angle_r	       hip_flexion_l	     hip_adduction_l	      hip_rotation_l	        knee_angle_l	       ankle_angle_l	         mtp_angle_l	    lumbar_extension	      lumbar_bending	     lumbar_rotation	 ercspn_r/activation	 intobl_r/activation	 extobl_r/activation	    abd_r/activation	    add_r/activation	hamstrings_r/activation	bifemsh_r/activation	glut_max_r/activation	iliopsoas_r/activation	rect_fem_r/activation	  vasti_r/activation	gastroc_r/activation	 soleus_r/activation	tib_ant_r/activation	 ercspn_l/activation	 intobl_l/activation	 extobl_l/activation	    abd_l/activation	    add_l/activation	hamstrings_l/activation	bifemsh_l/activation	glut_max_l/activation	iliopsoas_l/activation	rect_fem_l/activation	  vasti_l/activation	gastroc_l/activation	 soleus_l/activation	tib_ant_l/activation	
          0.00000000	         -2.00359173	         -0.55401759	          8.31269396	          0.00000000	          0.86523117	         -0.01878809	         25.13271512	         -1.62466133	         -2.48451716	         -9.13903991	          0.22987551	          0.23745212	        -11.66022089	         -0.06953148	          2.61405546	         -7.75197483	         11.15976005	         20.18558221	         -7.36975763	         -2.54374935	          0.34762079	          0.12110497	          0.12217001	          0.01001294	          0.01002921	          0.10134011	          0.02943943	          0.07704725	          0.05172392	          0.01635698	          0.01087017	          0.01217871	          0.01433964	          0.01223391	          0.30889890	          0.06792296	          0.01000259	          0.01000416	          0.04924467	          0.01000886	          0.01069614	          0.09543767	          0.01195441	          0.11602657	          0.01029217	          0.01000794	          0.12274099	          0.25978089	          0.01838861	
          0.01332174	         -2.05285338	         -0.45969214	          8.18061508	          0.01250504	          0.86402623	         -0.01789759	         24.64323525	         -1.43512802	         -2.22054237	         -9.71475325	          0.03168920	          0.23228813	        -12.04617165	         -0.06286515	          2.09954651	         -8.54852828	         10.76177687	         21.49175474	         -7.25580225	         -2.20424166	          0.10977544	          0.10688068	          0.12700998	          0.01000857	          0.01017187	          0.09332664	          0.03452300	          0.06311651	          0.06200068	          0.01338730	          0.01001079	          0.01000402	          0.01174920	          0.01001400	          0.33293070	          0.08106637	          0.01000217	          0.01000564	          0.04029963	          0.01001381	          0.01197878	          0.07810224	          0.01106009	          0.09494902	          0.01011083	          0.01305533	          0.10311817	          0.25477465	          0.01504802	
          0.02664348	         -2.09736267	         -0.36195788	          7.99943947	          0.02518471	          0.86306084	         -0.01689333	         24.16328187	         -1.27193722	         -1.97598622	        -10.28200564	         -0.27286711	          0.22724356	        -12.36163417	         -0.04934685	          1.56073347	         -9.49366674	         10.24070849	         22.81156658	         -7.13593544	         -1.85209160	         -0.13703473	          0.12019036	          0.10986816	          0.01000646	          0.05017450	          0.11184377	          0.03878097	          0.05166806	          0.06242270	          0.01095816	          0.01001397	          0.01028524	          0.01000923	          0.01000281	          0.36008370	          0.09595573	          0.01000165	          0.01000513	          0.03297914	          0.01000589	          0.01069655	          0.06391632	          0.01002290	          0.07770075	          0.02227952	          0.01558445	          0.08438537	          0.24536072	          0.01231450	
          0.03996521	         -2.13657121	         -0.25380397	          7.76975001	          0.03797587	          0.86245241	         -0.01577962	         23.73131061	         -1.12962989	         -1.78661577	        -10.93526876	         -0.56689264	          0.21854931	        -12.58245024	         -0.02158545	          0.99804447	        -10.61326433	          9.54650031	         24.14444742	         -7.01326805	         -1.49778111	         -0.38776396	          0.12124974	          0.08990957	          0.01000749	          0.07643139	          0.11919788	          0.04323443	          0.04230327	          0.06403086	          0.01001413	          0.01001770	          0.02164925	          0.01001076	          0.01000385	          0.37855164	          0.11318101	          0.01000217	          0.01000686	          0.02698809	          0.01000845	          0.01077369	          0.05230760	          0.01003985	          0.06358584	          0.01824628	          0.02011925	          0.06905457	          0.23228279	          0.01007805	
          0.05328695	         -2.17042650	         -0.13551948	          7.49679261	          0.05083007	          0.86231803	         -0.01456725	         23.34035833	         -1.00269396	         -1.64559415	        -11.68947457	         -0.69239474	          0.20734411	        -12.68429682	          0.01854510	          0.41127363	        -11.93069233	          8.63658345	         25.47505568	         -6.88649704	         -1.14649423	         -0.63842008	          0.11707070	          0.07357533	          0.01000517	          0.10026742	          0.12293567	          0.04696063	          0.03464537	          0.06476320	          0.01001402	          0.01001416	          0.03424850	          0.01000932	          0.01000279	          0.37754740	          0.13207414	          0.01000188	          0.01000511	          0.02208525	          0.01008155	          0.01208096	          0.04280785	          0.01135304	          0.05203502	          0.01493875	          0.02866631	          0.05650881	          0.21419886	          0.01000264	
          0.06660869	         -2.19967970	         -0.00864482	          7.18694823	          0.06368395	          0.86275534	         -0.01326811	         22.97710968	         -0.88440445	         -1.52417058	        -12.53682335	         -0.54521366	          0.20945041	        -12.65186160	          0.06765241	         -0.20346742	        -13.44758445	          7.48544396	         26.75044642	         -6.75671746	         -0.80243665	         -0.88831096	          0.11560277	          0.06020850	          0.01000510	          0.11453468	          0.13313872	          0.04981076	          0.02838810	          0.07394562	          0.01001121	          0.01001212	          0.03825284	          0.01000675	          0.01000208	          0.35359181	          0.14290320	          0.01000210	          0.01000542	          0.01807308	          0.02470383	          0.01576186	          0.03503384	          0.01006180	          0.04258252	          0.01223239	          0.03388016	          0.04624231	          0.19102589	          0.01000333	
          0.07993043	         -2.22483027	          0.13009027	          6.84480736	          0.07647726	          0.86377638	         -0.01189987	         22.62167866	         -0.77470548	         -1.40109998	        -13.43919990	         -0.11298879	          0.26609130	        -12.45836568	          0.12777200	         -0.85371388	        -15.20042636	          6.12971109	         27.86522476	         -6.62650591	         -0.47189031	         -1.13531996	          0.11406498	          0.04927016	          0.01000479	          0.12362214	          0.14537239	          0.05522155	          0.02329190	          0.08347735	          0.01001163	          0.01001198	          0.04268937	          0.01001003	          0.01000316	          0.30736090	          0.15395736	          0.01000235	          0.01000544	          0.01478985	          0.04623175	          0.01555014	          0.02867203	          0.01000970	          0.03484721	          0.01002968	          0.03638202	          0.03784106	          0.16618830	          0.01000357	
          0.09325216	         -2.24603076	          0.28381535	          6.47482357	          0.08916836	          0.86532542	         -0.01047902	         22.23006483	         -0.67408383	         -1.25428558	        -14.29834103	          0.51445433	          0.39447083	        -12.06654239	          0.19762232	         -1.55199018	        -17.25574422	          4.65370691	         28.65898308	         -6.49665754	         -0.16015186	         -1.37774030	          0.11182442	          0.04031918	          0.01000471	          0.12898118	          0.15989170	          0.06234336	          0.01917597	          0.08868747	          0.01000876	          0.01000957	          0.04232635	          0.01001057	          0.01000261	          0.26363718	          0.15867603	          0.01000265	          0.01000567	          0.01210332	          0.06951309	          0.01711375	          0.02346587	          0.01000590	          0.02851715	          0.01001608	          0.03337150	          0.03096619	          0.13615715	          0.01000353	
          0.10657390	         -2.26289634	          0.45454860	          6.08099445	          0.10171334	          0.86728105	         -0.00901555	         21.76673967	         -0.58532315	         -1.07921480	        -15.01821449	          1.16090368	          0.57186878	        -11.41788548	          0.26949083	         -2.30553244	        -19.72901691	          3.17048283	         28.94995932	         -6.37042186	          0.12941608	         -1.61329974	          0.10932357	          0.03299461	          0.01000486	          0.12957800	          0.17016944	          0.07052644	          0.01648050	          0.08868248	          0.01000703	          0.01000722	          0.04508926	          0.01000812	          0.01000215	          0.23151980	          0.15727161	          0.01000302	          0.01000593	          0.01000146	          0.09287323	          0.02824699	          0.01920582	          0.01000493	          0.02333712	          0.01001435	          0.02731008	          0.02534043	          0.11141998	          0.01000294	
          0.11989564	         -2.27477841	          0.64331538	          5.66618020	          0.11407376	          0.86949065	         -0.00751815	         21.20107427	         -0.51269260	         -0.88168009	        -15.52440164	          1.74465792	          0.79070707	        -10.45097902	          0.32935210	         -3.10963310	        -22.73252929	          1.71457942	         28.65587421	         -6.25233393	          0.39562952	         -1.83827558	          0.10494228	          0.02700108	          0.01000458	          0.12525045	          0.16971057	          0.07904176	          0.01769365	          0.08762180	          0.01000606	          0.01000621	          0.05633519	          0.01000882	          0.01000226	          0.21055619	          0.15614560	          0.01000282	          0.01000698	          0.01000135	          0.11498797	          0.02549319	          0.01572134	          0.01000329	          0.01909834	          0.01001219	          0.02234864	          0.02073684	          0.09117659	          0.01000248	
          0.13321738	         -2.28127100	          0.85209283	          5.23031989	          0.12622883	          0.87182400	         -0.00599521	         20.49702427	         -0.46196262	         -0.66637211	        -15.74411656	          2.24794543	          1.04597349	         -9.13693648	          0.36368660	         -3.93935075	        -26.28841941	          0.17992913	         27.82382165	         -6.14559685	          0.63615994	         -2.04724903	          0.09710992	          0.02209667	          0.01000435	          0.11643181	          0.15890312	          0.08617405	          0.01460005	          0.08632827	          0.01000498	          0.01000540	          0.07246009	          0.01000891	          0.01000227	          0.19786058	          0.15329504	          0.01000268	          0.01001026	          0.01000111	          0.13358877	          0.02694629	          0.01287702	          0.01000281	          0.01562990	          0.01000939	          0.01828840	          0.01696970	          0.07461104	          0.01000189	
